<?xml version="1.0" standalone="no"?>
<!DOCTYPE svg PUBLIC "-//W3C//DTD SVG 20010904//EN"
 "http://www.w3.org/TR/2001/REC-SVG-20010904/DTD/svg10.dtd">
<svg version="1.0" xmlns="http://www.w3.org/2000/svg"
 width="500.000000pt" height="500.000000pt" viewBox="0 0 500.000000 500.000000"
 preserveAspectRatio="xMidYMid meet">
<metadata>
Created by potrace 1.16, written by Peter Selinger 2001-2019
</metadata>
<g transform="translate(0.000000,500.000000) scale(0.100000,-0.100000)"
fill="#000000" stroke="none">
<path d="M3970 4453 c-107 -11 -190 -49 -279 -128 -123 -110 -145 -110 -563
-9 -230 55 -325 74 -357 71 -81 -9 -81 -9 -190 -443 -105 -417 -122 -464 -199
-546 -79 -84 -156 -120 -300 -139 -284 -36 -566 -120 -847 -252 -127 -60 -184
-66 -269 -28 -175 77 -367 68 -521 -24 -173 -104 -275 -282 -275 -480 1 -143
39 -245 135 -355 81 -93 87 -108 96 -245 4 -66 13 -144 18 -172 27 -136 97
-293 187 -419 297 -417 970 -738 1642 -784 560 -38 993 38 1452 253 482 225
796 579 865 974 8 47 15 111 15 143 0 85 23 139 95 221 109 124 155 235 155
376 0 160 -53 288 -164 398 -114 113 -236 165 -386 165 -88 0 -174 -19 -250
-54 -89 -42 -140 -37 -279 28 -256 118 -439 178 -697 227 -198 38 -240 60
-289 149 -26 48 -30 64 -28 125 2 96 121 593 145 609 14 8 63 -1 215 -38 328
-81 363 -92 407 -134 21 -21 53 -69 72 -110 60 -132 146 -217 269 -269 108
-46 248 -40 363 14 116 55 222 187 251 313 41 179 -36 378 -186 481 -83 57
-210 92 -303 82z m-2085 -1964 c115 -21 211 -94 257 -194 34 -74 32 -199 -4
-277 -32 -70 -96 -133 -168 -167 -75 -36 -200 -37 -276 -3 -58 26 -133 98
-163 158 -101 195 21 440 240 483 24 5 47 9 50 10 3 1 32 -4 64 -10z m1340 0
c186 -34 303 -198 273 -385 -17 -110 -94 -210 -196 -257 -68 -31 -198 -31
-266 1 -80 37 -131 85 -168 160 -29 58 -33 76 -33 147 0 95 28 166 94 238 52
56 109 82 232 106 3 1 32 -4 64 -10z m-1289 -1107 c33 -26 87 -60 121 -75 135
-60 392 -90 598 -68 191 20 311 63 407 144 40 34 57 41 101 44 62 5 93 -9 124
-56 47 -70 24 -139 -72 -214 -165 -129 -385 -187 -715 -187 -271 0 -440 33
-601 116 -197 102 -258 217 -164 311 29 29 39 33 87 33 50 0 60 -4 114 -48z"/>
</g>
</svg>
